# xmcd CD database file
#
# Track frame offsets:
#	150
#	12587
#	23467
#	34050
#	47822
#	57805
#	69102
#	80172
#	90525
#	103685
#	116462
#	126225
#	139855
#	152617
#	165880
#	176292
#	186842
#	198685
#	208982
#	221830
#	232527
#	245212
#	257450
#	270365
#	282615
#	293260
#	303350
#	317772
#
# Disc length: 4420 seconds
#
# Revision: 6
# Processed by: cddbd v1.5.2PL0 Copyright (c) Steve Scherf et al.
# Submitted via: CDex 1.99
#
DISCID=8411421c
DTITLE=Various Artist - The Chess Story 1947-1975 CD 6: 1955-1956
DYEAR=1999
DGENRE=Soul/R&B
TTITLE0=The Moonglows - We Go Together
TTITLE1=Chuck Berry - Roll Over Beethoven
TTITLE2=Paul Gayten - You Better Believe It
TTITLE3=The Flamingos - A Kiss From Your Lips
TTITLE4=Bobby Charles - Take it Easy Greasy
TTITLE5=Bo Diddley - Who Do You Love
TTITLE6=The Moonglows - See-Saw
TTITLE7=Chuck Berry - Brown-Eyed Handsome Man
TTITLE8=Muddy Waters - Don't Go No Farther
TTITLE9=Howlin' Wolf - I Asked For Water (She Gave Me Gasoline)
TTITLE10=Willie Dixon - 29 Ways
TTITLE11=The Flamingos - Would I Be Crying (If I Were Lying To You)
TTITLE12=Sonny Boy Williamson [II] - Keep It To Yourself
TTITLE13=Chuck Berry - Too Much Monkey Business
TTITLE14=J.B. Lenoir - Don't Touch My Head
TTITLE15=Floyd Dixon - I'm Ashamed Of Myself
TTITLE16=The Ravens - A Simple Prayer
TTITLE17=Bobby Cisco - Tall Dark And Handsome Man
TTITLE18=Little Walter - Boom Boom (Out Goes The Lights)
TTITLE19=Clarence "Frogman" Henry - Ain't Got No Home
TTITLE20=Jimmy Rogers - Walkin' By Myself
TTITLE21=The Pastels - Been So Long
TTITLE22=Muddy Waters - Got My Mojo Workin'
TTITLE23=Chuck Berry - School Day
TTITLE24=The Moonglows - Please Send Me Someone To Love
TTITLE25=Dale Hawkins - Susie Q
TTITLE26=Muddy Waters - Rock Me
TTITLE27=The Moonglows - Blue Velvet
EXTD=YEAR: 1999
EXTT0=
EXTT1=
EXTT2=
EXTT3=
EXTT4=
EXTT5=
EXTT6=
EXTT7=
EXTT8=
EXTT9=
EXTT10=
EXTT11=
EXTT12=
EXTT13=
EXTT14=
EXTT15=
EXTT16=
EXTT17=
EXTT18=
EXTT19=
EXTT20=
EXTT21=
EXTT22=
EXTT23=
EXTT24=
EXTT25=
EXTT26=
EXTT27=
PLAYORDER=
